<svg width="2248" height="604" viewBox="0 0 2248 604" fill="none" xmlns="http://www.w3.org/2000/svg">
<g clip-path="url(#clip0_2001_398)">
<path d="M721.709 414C719.226 414 717.984 412.758 717.984 410.275V219.108C717.984 216.625 719.226 215.383 721.709 215.383H802.467C804.851 215.383 806.838 216.029 808.428 217.32L842.697 251.292C843.79 252.285 844.436 253.13 844.634 253.825C844.932 254.52 845.081 255.663 845.081 257.252V298.078C845.081 299.369 844.585 300.512 843.592 301.505L827.201 317.448L813.344 329.368L829.735 351.122L846.571 387.18C846.969 388.074 847.267 388.968 847.465 389.862C847.763 390.657 847.912 391.65 847.912 392.842V410.275C847.912 412.758 846.671 414 844.188 414H804.851C802.666 414 801.176 413.007 800.381 411.02L776.392 341.288H765.217V410.275C765.217 412.758 763.976 414 761.492 414H721.709ZM781.607 304.783C789.852 304.783 795.464 303.094 798.444 299.717C801.424 296.24 802.915 289.784 802.915 280.347C802.915 270.811 801.424 264.354 798.444 260.977C795.464 257.5 789.852 255.762 781.607 255.762C773.462 255.762 767.85 257.5 764.77 260.977C761.691 264.354 760.151 270.811 760.151 280.347C760.151 289.784 761.691 296.24 764.77 299.717C767.85 303.094 773.462 304.783 781.607 304.783ZM875.366 414C872.882 414 871.641 412.758 871.641 410.275V219.108C871.641 216.625 872.882 215.383 875.366 215.383H979.219C981.702 215.383 982.944 216.625 982.944 219.108V251.292C982.944 253.775 981.702 255.017 979.219 255.017H921.258V297.333H974.153C976.636 297.333 977.878 298.575 977.878 301.058V328.325C977.878 330.808 976.636 332.05 974.153 332.05H921.258V374.217H979.219C981.702 374.217 982.944 375.459 982.944 377.942V410.275C982.944 412.758 981.702 414 979.219 414H875.366ZM1022.33 414C1019.85 414 1018.6 412.758 1018.6 410.275V219.108C1018.6 216.625 1019.85 215.383 1022.33 215.383H1106.96C1109.34 215.383 1111.33 216.178 1112.92 217.767L1142.72 247.567C1144.41 249.256 1145.25 251.242 1145.25 253.527V410.275C1145.25 412.758 1144.01 414 1141.53 414H1099.36C1096.88 414 1095.64 412.758 1095.64 410.275V255.017H1068.22V410.275C1068.22 412.758 1066.98 414 1064.5 414H1022.33ZM1219.28 414C1217 414 1215.01 413.156 1213.32 411.467L1183.52 381.667C1181.83 380.078 1180.99 378.091 1180.99 375.707V253.527C1180.99 251.242 1181.83 249.256 1183.52 247.567L1213.32 217.767C1215.01 216.178 1217 215.383 1219.28 215.383H1277.84C1280.22 215.383 1282.21 216.178 1283.8 217.767L1313.6 247.567C1315.29 249.256 1316.13 251.242 1316.13 253.527V375.707C1316.13 378.091 1315.29 380.078 1313.6 381.667L1283.8 411.467C1282.21 413.156 1280.22 414 1277.84 414H1219.28ZM1236.87 374.217H1260.26C1264.43 374.217 1266.52 371.436 1266.52 365.873V263.51C1266.52 257.848 1264.43 255.017 1260.26 255.017H1236.87C1232.79 255.017 1230.76 257.848 1230.76 263.51V365.873C1230.76 371.436 1232.79 374.217 1236.87 374.217ZM1355.54 414C1353.06 414 1351.82 412.758 1351.82 410.275V219.108C1351.82 216.625 1353.06 215.383 1355.54 215.383H1397.71C1400.19 215.383 1401.43 216.625 1401.43 219.108V298.078H1419.91L1429.74 260.977L1438.68 217.32C1438.88 216.724 1439.33 216.277 1440.02 215.979C1440.82 215.582 1441.96 215.383 1443.45 215.383H1486.36C1488.85 215.383 1490.09 216.625 1490.09 219.108V237.733C1490.09 238.826 1489.94 239.918 1489.64 241.011C1489.34 242.004 1489.1 242.898 1488.9 243.693L1470.72 287.35L1458.05 311.19L1471.02 334.732L1492.92 384.498C1493.32 385.193 1493.61 385.938 1493.81 386.733C1494.01 387.528 1494.11 388.67 1494.11 390.16V410.275C1494.11 412.758 1492.87 414 1490.39 414H1445.98C1445.29 414 1444.4 413.901 1443.3 413.702C1442.31 413.404 1441.71 412.758 1441.51 411.765L1430.49 364.532L1422.29 337.563H1401.43V410.275C1401.43 412.758 1400.19 414 1397.71 414H1355.54ZM1527.53 414C1525.05 414 1523.81 412.758 1523.81 410.275V219.108C1523.81 216.625 1525.05 215.383 1527.53 215.383H1608.29C1610.67 215.383 1612.66 216.029 1614.25 217.32L1648.52 251.292C1649.61 252.285 1650.26 253.13 1650.46 253.825C1650.75 254.52 1650.9 255.663 1650.9 257.252V298.078C1650.9 299.369 1650.41 300.512 1649.41 301.505L1633.02 317.448L1619.17 329.368L1635.56 351.122L1652.39 387.18C1652.79 388.074 1653.09 388.968 1653.29 389.862C1653.59 390.657 1653.73 391.65 1653.73 392.842V410.275C1653.73 412.758 1652.49 414 1650.01 414H1610.67C1608.49 414 1607 413.007 1606.2 411.02L1582.21 341.288H1571.04V410.275C1571.04 412.758 1569.8 414 1567.31 414H1527.53ZM1587.43 304.783C1595.67 304.783 1601.29 303.094 1604.27 299.717C1607.25 296.24 1608.74 289.784 1608.74 280.347C1608.74 270.811 1607.25 264.354 1604.27 260.977C1601.29 257.5 1595.67 255.762 1587.43 255.762C1579.28 255.762 1573.67 257.5 1570.59 260.977C1567.51 264.354 1565.97 270.811 1565.97 280.347C1565.97 289.784 1567.51 296.24 1570.59 299.717C1573.67 303.094 1579.28 304.783 1587.43 304.783ZM1680.15 414C1677.66 414 1676.42 412.758 1676.42 410.275V272.152C1676.42 270.861 1676.92 269.371 1677.91 267.682L1713.22 217.618C1714.32 216.128 1715.91 215.383 1717.99 215.383H1767.31C1769.5 215.383 1771.08 216.128 1772.08 217.618L1807.54 267.682C1808.53 269.073 1809.03 270.563 1809.03 272.152V410.275C1809.03 412.758 1807.79 414 1805.31 414H1763.14C1760.65 414 1759.41 412.758 1759.41 410.275V346.95H1726.19V410.275C1726.19 412.758 1724.94 414 1722.46 414H1680.15ZM1742.73 314.915C1751.86 314.915 1758.02 312.928 1761.2 308.955C1764.48 304.882 1766.12 297.184 1766.12 285.86C1766.12 274.536 1764.48 266.887 1761.2 262.914C1758.02 258.841 1751.86 256.805 1742.73 256.805C1733.69 256.805 1727.53 258.841 1724.25 262.914C1721.07 266.887 1719.48 274.536 1719.48 285.86C1719.48 297.184 1721.07 304.882 1724.25 308.955C1727.53 312.928 1733.69 314.915 1742.73 314.915ZM1877.45 414C1874.97 414 1873.72 412.758 1873.72 410.275V255.017H1847.65C1845.17 255.017 1843.92 253.775 1843.92 251.292V219.108C1843.92 216.625 1845.17 215.383 1847.65 215.383H1949.42C1951.9 215.383 1953.14 216.625 1953.14 219.108V251.292C1953.14 253.775 1951.9 255.017 1949.42 255.017H1923.34V410.275C1923.34 412.758 1922.1 414 1919.62 414H1877.45ZM2022.37 414C2019.89 414 2018.65 412.758 2018.65 410.275V255.017H1992.57C1990.09 255.017 1988.85 253.775 1988.85 251.292V219.108C1988.85 216.625 1990.09 215.383 1992.57 215.383H2094.34C2096.83 215.383 2098.07 216.625 2098.07 219.108V251.292C2098.07 253.775 2096.83 255.017 2094.34 255.017H2068.27V410.275C2068.27 412.758 2067.03 414 2064.54 414H2022.37Z" fill="white"/>
<path fill-rule="evenodd" clip-rule="evenodd" d="M447.25 68.3418L451.67 209.408L464.206 208.752L462.471 153.383L491.386 158.559L493.073 207.243L512.992 206.201L520.848 241.628L258.469 254.766L261.764 219.339L282.372 218.261L278.019 89.6289L331.728 76.886L336.07 215.453L351.288 214.658L348.348 120.834L381.1 119.808L384.018 212.946L397.997 212.215L393.541 70.0248L447.25 68.3418ZM465.005 350.143C488.798 350.143 508.086 330.855 508.086 307.062C508.086 283.269 488.798 263.98 465.005 263.98C441.212 263.98 421.924 283.269 421.924 307.062C421.924 330.855 441.212 350.143 465.005 350.143ZM465.005 363.32C496.076 363.32 521.264 338.132 521.264 307.062C521.264 275.991 496.076 250.803 465.005 250.803C433.934 250.803 408.746 275.991 408.746 307.062C408.746 338.132 433.934 363.32 465.005 363.32ZM465.005 331.896C478.721 331.896 489.84 320.777 489.84 307.062C489.84 293.346 478.721 282.227 465.005 282.227C451.289 282.227 440.17 293.346 440.17 307.062C440.17 320.777 451.289 331.896 465.005 331.896ZM326.132 334.938C339.848 334.938 350.967 323.819 350.967 310.103C350.967 296.387 339.848 285.268 326.132 285.268C312.416 285.268 301.297 296.387 301.297 310.103C301.297 323.819 312.416 334.938 326.132 334.938ZM369.213 311.116C369.213 334.909 349.925 354.197 326.132 354.197C302.339 354.197 283.051 334.909 283.051 311.116C283.051 287.323 302.339 268.035 326.132 268.035C349.925 268.035 369.213 287.323 369.213 311.116ZM382.391 311.116C382.391 342.187 357.203 367.375 326.132 367.375C295.061 367.375 269.873 342.187 269.873 311.116C269.873 280.045 295.061 254.857 326.132 254.857C357.203 254.857 382.391 280.045 382.391 311.116ZM514.932 373.797L274.111 373.125L279.087 405.755L505.552 406.427L514.932 373.797ZM316.481 412.559L463.991 420.926L470.973 450.025L393.026 445.951L391.071 492.221L472.852 492.01L477.044 546.585L311.94 546.989L316.621 492.414L352.122 492.322L354.168 443.92L310.905 441.659L316.481 412.559ZM250.106 321.76L258.723 283.24H166.479L156.342 321.76H250.106ZM260.75 332.91L273.421 358.252H187.259L185.231 332.91H260.75ZM628.764 311.488L628.661 272.969L533.163 273.223L540.523 311.742L628.764 311.488ZM600.125 348.582L600.177 329.062L531.992 328.87L526.332 348.385L600.125 348.582ZM395.061 298.445C402.883 277.18 409.572 266.746 426.485 251.31L365.158 255.871C381.415 269.329 387.612 278.892 395.061 298.445ZM586.138 519.426L586.194 540.385L491.103 540.638L495.102 519.679L586.138 519.426ZM297.591 540.668L302.003 519.72L210.066 522.601L210.723 543.549L297.591 540.668Z" fill="white"/>
</g>
<defs>
<clipPath id="clip0_2001_398">
<rect width="2248" height="604" fill="white"/>
</clipPath>
</defs>
</svg>
